<svg width="38" height="29" viewBox="0 0 38 29" fill="none" xmlns="http://www.w3.org/2000/svg">
<path d="M32.1633 2.43149C29.7043 1.3047 27.0854 0.474437 24.3266 0C23.9867 0.593046 23.5869 1.40354 23.327 2.05589C20.4082 1.62099 17.5094 1.62099 14.6506 2.05589C14.3707 1.40354 13.9709 0.593046 13.631 0C10.8722 0.474437 8.25328 1.3047 5.7943 2.43149C0.836369 9.82479 -0.503073 17.0402 0.156652 24.137C3.45528 26.5685 6.63395 28.0314 9.77264 29C10.5523 27.9523 11.232 26.8255 11.8318 25.6592C10.6923 25.244 9.61271 24.7103 8.59314 24.0975C8.87302 23.8998 9.13291 23.6824 9.3928 23.4847C15.6502 26.3708 22.4274 26.3708 28.6048 23.4847C28.8647 23.7021 29.1246 23.8998 29.4044 24.0975C28.3849 24.7103 27.2853 25.2243 26.1658 25.6592C26.7655 26.8255 27.4453 27.9523 28.2249 29C31.3636 28.0314 34.5623 26.5685 37.8409 24.137C38.6206 15.8937 36.5015 8.75731 32.2033 2.43149H32.1633ZM12.6714 19.788C10.7922 19.788 9.25286 18.0682 9.25286 15.953C9.25286 13.8378 10.7522 12.118 12.6714 12.118C14.5906 12.118 16.11 13.8378 16.09 15.953C16.09 18.0484 14.5906 19.788 12.6714 19.788ZM25.2862 19.788C23.4069 19.788 21.8676 18.0682 21.8676 15.953C21.8676 13.8378 23.367 12.118 25.2862 12.118C27.2054 12.118 28.7247 13.8378 28.7047 15.953C28.7047 18.0484 27.2054 19.788 25.2862 19.788Z" fill="url(#paint0_linear_271_215)"/>
<defs>
<linearGradient id="paint0_linear_271_215" x1="19" y1="0" x2="19" y2="29" gradientUnits="userSpaceOnUse">
<stop stop-color="#FD8900"/>
<stop offset="0.429" stop-color="#F9BC20"/>
<stop offset="1" stop-color="#FCFA93"/>
</linearGradient>
</defs>
</svg>
