<svg width="508" height="48" viewBox="0 0 508 48" fill="none" xmlns="http://www.w3.org/2000/svg">
<path d="M18.07 18.88L17.65 19.09V48H0.71V11.46C0.92 10.76 1.34 10.13 1.97 9.71C2.53 9.29 3.23 8.94 4.07 8.73H33.47C34.17 8.73 34.87 9.01 35.64 9.57C36.34 10.13 36.97 10.69 37.39 11.25L54.05 33.65C54.05 33.79 54.12 33.86 54.26 33.93C54.4 34 54.47 34.07 54.61 34.14H54.89V8.38L71.41 0.889997V41.7C71.41 42.47 71.27 43.24 70.99 43.94C70.71 44.71 70.29 45.41 69.8 45.97C69.24 46.6 68.68 47.09 67.98 47.44C67.28 47.86 66.51 48 65.74 48H47.54C46.98 48 46.42 47.86 45.79 47.58C45.09 47.3 44.6 46.95 44.25 46.39L22.27 19.44C21.99 19.16 21.64 19.02 21.15 18.95C20.59 18.95 20.17 18.88 19.75 18.88H18.07ZM144.645 38.27L137.785 48H84.3748C83.3948 48 82.6248 47.79 81.9248 47.3C81.2248 46.88 80.5948 46.25 80.1748 45.55C79.7548 44.85 79.4048 44.08 79.1948 43.24C78.9148 42.4 78.8448 41.56 78.8448 40.72V15.17C78.8448 14.47 78.9848 13.77 79.2648 13C79.5448 12.3 79.8948 11.6 80.3848 10.97C80.8748 10.34 81.4348 9.78 81.9948 9.36C82.5548 8.94 83.1848 8.73 83.8848 8.73H144.295L137.715 18.67H97.3248C96.6248 18.67 96.1348 19.09 95.7148 19.79C95.2948 20.49 95.1548 21.33 95.1548 22.17V22.94C95.1548 23.15 95.3648 23.29 95.7148 23.36C95.9948 23.43 96.2048 23.43 96.3448 23.43H144.645L137.785 33.16H95.9248C95.7148 33.16 95.6448 33.44 95.6448 33.93V34.14C95.6448 35.12 95.7148 35.96 95.8548 36.66C95.9948 37.36 96.4148 37.92 97.2548 38.27H144.645ZM156.274 48C154.734 47.51 153.544 46.74 152.704 45.62C151.794 44.57 151.374 43.45 151.374 42.26V14.82C151.374 14.12 151.514 13.35 151.864 12.58C152.144 11.88 152.634 11.18 153.194 10.62C153.754 10.06 154.384 9.64 155.154 9.29C155.854 8.94 156.694 8.73 157.534 8.73H210.454C211.154 8.73 211.924 8.94 212.624 9.22C213.324 9.5 214.024 9.92 214.654 10.41C215.284 10.97 215.844 11.53 216.264 12.16C216.684 12.86 217.034 13.56 217.244 14.26V41.91C217.244 42.47 217.104 43.1 216.824 43.8C216.544 44.5 216.194 45.2 215.774 45.83C215.354 46.46 214.864 46.95 214.304 47.37C213.744 47.79 213.114 48 212.554 48H156.274ZM168.034 35.89C168.104 36.31 168.314 36.73 168.664 37.29C168.944 37.85 169.364 38.13 169.924 38.13H198.554C199.254 38.13 199.814 37.78 200.234 37.01C200.584 36.24 200.794 35.54 200.794 34.84V21.68L200.654 20.98C200.374 20.35 199.954 19.79 199.394 19.3C198.834 18.88 198.204 18.6 197.574 18.6H170.974C170.064 18.6 169.364 18.95 168.804 19.51C168.244 20.14 168.034 20.84 168.034 21.61V35.89ZM278.72 38.27L285.23 48H222.23L254.92 18.67H229.09L222.44 8.73H285.23L252.4 38.27H278.72ZM294.77 48C293.23 47.51 292.04 46.74 291.2 45.62C290.29 44.57 289.87 43.45 289.87 42.26V14.82C289.87 14.12 290.01 13.35 290.36 12.58C290.64 11.88 291.13 11.18 291.69 10.62C292.25 10.06 292.88 9.64 293.65 9.29C294.35 8.94 295.19 8.73 296.03 8.73H348.95C349.65 8.73 350.42 8.94 351.12 9.22C351.82 9.5 352.52 9.92 353.15 10.41C353.78 10.97 354.34 11.53 354.76 12.16C355.18 12.86 355.53 13.56 355.74 14.26V41.91C355.74 42.47 355.6 43.1 355.32 43.8C355.04 44.5 354.69 45.2 354.27 45.83C353.85 46.46 353.36 46.95 352.8 47.37C352.24 47.79 351.61 48 351.05 48H294.77ZM306.53 35.89C306.6 36.31 306.81 36.73 307.16 37.29C307.44 37.85 307.86 38.13 308.42 38.13H337.05C337.75 38.13 338.31 37.78 338.73 37.01C339.08 36.24 339.29 35.54 339.29 34.84V21.68L339.15 20.98C338.87 20.35 338.45 19.79 337.89 19.3C337.33 18.88 336.7 18.6 336.07 18.6H309.47C308.56 18.6 307.86 18.95 307.3 19.51C306.74 20.14 306.53 20.84 306.53 21.61V35.89ZM380.511 22.1L380.091 22.31V48H363.151V5.93H380.091V11.95H395.911C396.611 11.95 397.311 12.23 398.081 12.79C398.781 13.35 399.411 13.91 399.831 14.47L416.491 33.65C416.491 33.79 416.561 33.86 416.701 33.93C416.841 34 416.911 34.07 417.051 34.14H417.331V8.38L433.851 0.889997V41.7C433.851 42.47 433.711 43.24 433.431 43.94C433.151 44.71 432.731 45.41 432.241 45.97C431.681 46.6 431.121 47.09 430.421 47.44C429.721 47.86 428.951 48 428.181 48H409.981C409.421 48 408.861 47.86 408.231 47.58C407.531 47.3 407.041 46.95 406.691 46.39L384.711 22.66C384.431 22.38 384.081 22.24 383.591 22.17C383.031 22.17 382.611 22.1 382.191 22.1H380.511ZM441.706 43.31C441.566 43.24 441.496 42.96 441.496 42.54C441.426 42.12 441.356 41.77 441.286 41.56V16.22C441.286 15.31 441.356 14.4 441.636 13.49C441.916 12.58 442.266 11.74 442.826 11.04C443.316 10.34 443.946 9.78 444.786 9.36C445.556 8.94 446.466 8.66 447.586 8.66H500.716C500.996 8.66 501.556 8.8 502.326 8.94C503.026 9.08 503.796 9.43 504.496 9.99C505.196 10.55 505.896 11.25 506.456 12.23C507.016 13.21 507.296 14.54 507.296 16.08V30.57C507.296 30.85 507.156 31.06 507.016 31.34C506.876 31.62 506.666 31.9 506.386 32.18C506.106 32.46 505.756 32.67 505.476 32.88C505.196 33.09 504.916 33.23 504.636 33.23H458.366C458.226 33.23 458.086 33.37 458.016 33.65C457.876 33.93 457.876 34.28 457.876 34.63C457.876 34.91 457.876 35.26 458.016 35.68C458.156 36.1 458.296 36.52 458.506 36.94C458.646 37.36 458.926 37.64 459.206 37.92C459.486 38.2 459.766 38.34 460.116 38.34H500.296L493.926 48H447.096C446.536 48 445.906 47.86 445.346 47.51C444.716 47.16 444.156 46.74 443.666 46.25C443.106 45.76 442.686 45.27 442.336 44.71C441.986 44.15 441.776 43.73 441.706 43.31ZM457.736 23.08C457.736 23.36 457.946 23.5 458.296 23.5H490.286C490.566 23.5 490.706 23.29 490.706 22.73V21.12H490.636C490.636 21.12 490.636 21.05 490.636 20.98C490.496 20.7 490.216 20.35 489.866 19.79C489.446 19.23 489.096 18.95 488.746 18.95H459.766C458.366 18.95 457.666 19.86 457.666 21.54V22.38C457.666 22.8 457.666 23.08 457.736 23.08Z" fill="url(#paint0_linear_271_190)"/>
<defs>
<linearGradient id="paint0_linear_271_190" x1="254" y1="-16.7541" x2="254" y2="60" gradientUnits="userSpaceOnUse">
<stop stop-color="#FCFA93"/>
<stop offset="0.721" stop-color="#F9BC20"/>
<stop offset="1" stop-color="#FD8900"/>
</linearGradient>
</defs>
</svg>
